<?xml version="1.0" encoding="utf-8"?>
<!-- Generator: Adobe Illustrator 19.0.0, SVG Export Plug-In . SVG Version: 6.00 Build 0)  -->
<svg version="1.1" xmlns="http://www.w3.org/2000/svg" xmlns:xlink="http://www.w3.org/1999/xlink" x="0px" y="0px"
	 viewBox="0 0 130.5 264" style="enable-background:new 0 0 130.5 264;" xml:space="preserve">
<style type="text/css">
	.st0{fill:#212121;stroke:#1E1B1B;stroke-width:2;stroke-miterlimit:10;}
	.st1{fill:#0F0F0F;stroke:#1E1B1B;stroke-width:2;stroke-miterlimit:10;}
	.st2{fill:#060606;}
	.st3{fill:#0D0D0D;}
	.st4{fill:#161616;}
	.st5{fill:#B6B6B6;stroke:#1E1B1B;stroke-width:2;stroke-miterlimit:10;}
</style>
<g id="Layer_2">
</g>
<g id="Layer_1">
	<g>
		<path d="M63.5,244.3c0,2.9,0.6,6.1-1.6,8.6c-10.3,0-20.7,0-31,0c0-45.7,0-91.5,0.1-137.2c0-3.3-0.7-5.9-2.9-8.5
			C21.3,99,16,90.1,13.1,79.8c-0.2-0.8-0.1-1.7-1.2-1.9c0-6,0-12,0-18c2.1-11.7,8.7-20.5,17.6-27.8c1-0.8,2-1.7,3.5-1.6
			c0.8,0.2,1.3,0.8,1.4,1.6c-1.7,4.6-6.1,6.9-9.1,10.4c-11.6,13.4-12.8,28-6.3,43.8c2.9,7.1,7.1,13.6,12.1,19.4
			c6,7.1,14.4,10.4,23.1,11.7c11.5,1.7,22.7-0.2,32.4-7.2c20.7-15.1,30.2-42.2,11.2-66.8c-3.7-4.8-8-8.9-12.1-13.2
			c-0.2-0.9,0.2-1.4,1-1.7c3.8,0,6.5,2.4,8.8,5c8,9.2,15,18.9,16.4,31.5c0,4.7,0,9.3,0,14c-1.4,0.3-1.1,1.5-1.3,2.4
			c-2.4,8.8-6.6,16.8-12.7,23.4c-3.2,3.5-4,7-4,11.5c0.1,45.6,0.1,91.1,0.1,136.7c-9,0-18,0-27,0c-2.1-2.6-1.6-5.7-1.6-8.6
			c0-37.6,0-75.3-0.1-112.9c0-2.3,0.5-4.6-0.9-6.9c-1.4,2.3-0.9,4.7-0.9,6.9"/>
		<path class="st0" d="M54.8,23.8c-7.8,0.6-14.2,4.6-20.9,8.1c-0.3-0.3-0.7-0.7-1-1c6-4.6,12.6-7.6,20.1-8.8
			c0.7,0.5,1.6,0.2,2.2,0.8C55.3,23.3,55.2,23.6,54.8,23.8z"/>
		<path class="st0" d="M86,29.7c-5.8-2.4-11.4-5.6-17.9-6c-0.4-0.2-0.6-0.5-0.4-0.9c0.6-0.6,1.6-0.3,2.2-0.8c6.2,1,12,3.1,17.2,6.7
			C86.7,29.1,86.3,29.4,86,29.7z"/>
		<path class="st1" d="M69.9,22.1c-0.7,0.3-1.5,0.6-2.2,0.9c-4.2,0.5-8.3,0.5-12.5,0c-0.7-0.3-1.5-0.6-2.2-1
			c0.6-0.1,1.2-0.2,1.9-0.3c4.4,0,8.8,0,13.2,0C68.6,21.9,69.2,22,69.9,22.1z"/>
		<path class="st2" d="M73.9,57.4c-0.3,2.4-1.7,4-4.2,4c-2.5,0-4-1.5-4-4c0-2.6,1.5-3.9,4.1-3.9C72.4,53.4,73.7,54.9,73.9,57.4z"/>
		<path class="st3" d="M47.6,61c2.4-0.2,3.9,1.3,4,3.7c0.1,2.4-1.3,4-3.8,4.2c-2.6,0.2-4-1.2-4.1-3.7C43.6,62.7,44.6,61,47.6,61z"/>
		<path class="st4" d="M58.1,73.2c8,2.6,8,2.6,12-2.3c0.5,3.9-0.9,6.8-4,7.3C62.3,78.9,60.3,76.6,58.1,73.2z"/>
		<path class="st5" d="M55.2,23.1c4.2,0,8.3,0,12.5,0c0.2,0.2,0.3,0.5,0.4,0.7c-4.4,0-8.9,0-13.3,0C54.9,23.5,55,23.3,55.2,23.1z"/>
	</g>
</g>
</svg>
