<?xml version="1.0" encoding="utf-8"?>
<!-- Generator: Adobe Illustrator 19.0.0, SVG Export Plug-In . SVG Version: 6.00 Build 0)  -->
<svg version="1.1" id="Layer_1" xmlns="http://www.w3.org/2000/svg" xmlns:xlink="http://www.w3.org/1999/xlink" x="0px" y="0px"
	 viewBox="0 0 211.5 225" style="enable-background:new 0 0 211.5 225;" xml:space="preserve">
<style type="text/css">
	.st0{fill:none;stroke:#000000;stroke-width:7;stroke-linecap:round;stroke-linejoin:round;stroke-miterlimit:10;}
</style>
<g>
	<path class="st0" d="M175.9,107.4c5.8,8.5,9,18.1,11.4,28c0.6,2.6,0.6,5.3,0.5,8c-0.4,9.4-0.4,9.4,8,12.5c6.9-4.9,6.8-6.4-0.8-15.8
		c0-18.1-2.9-34.6-19.6-45.3c-1.3-0.8-2-3.5-2-5.4c-0.2-16-0.1-32-0.1-48.5c-4.8,0-10.7,0-16.8,0c0-3.1,0-5.8,0-8.8
		c-4.1,0-7.9,0-12.3,0c0,2.6,0,5.4,0,8.5c-22.5,0-44.5,0-66.8,0c0-2.6,0-5.4,0-8.5c-3.7,0-7.2,0-11,0c0,2.6,0,5.4,0,8.5
		c-6.7,0-13.2,0-20,0c0,18.7,0,37.2,0,55.4c-9.6,6-15,14.1-17.4,24.8c-2.8,12.6-4,29.9-1.4,38.5c4.2,1,8.7-1.9,11-7
		c1.3-2.9,0.1-4.8-2.1-6.5c-0.4-0.3-1.3,0-2,0c-2.3-12.2,2.6-26.1,12.5-37.1c0,1.7,0,3.4,0,5.1c0,10.5,0.7,21.1-0.2,31.5
		c-0.9,10.3,8,13.6,16.7,10.1c-3.9,17.1-7.7,33.5-11.5,50c3.1,7.6,4.4,8.2,14.9,6.9c2.8-6,1.7-9.4-4.8-14.7c7.1-13.1,9-27.7,11.1-43
		c21.8,0,44,0,65.9,0c7.3,8.2,11.6,17.6,13.5,27.8c0.9,4.9-0.4,10.3-0.8,15.5"/>
	<path class="st0" d="M168.4,66.4c-2,0.5-4.2,0.6-6,1.6c-6.7,3.5-13.8,3.5-21,3.5c-19-0.1-38-0.2-57,0c-10.1,0.1-20,0-30.2-4.8
		c0.4,1.8,0.5,2.8,0.8,4.2c-2.6,0-5.1,0-7.6,0"/>
	<path class="st0" d="M174.9,106.4c-0.2,4.2-0.5,8.3-0.5,12.5c0.1,8.8,0.3,17.7,0.5,26.5c0.1,6.4-4.3,10.5-11,10.5
		c-3.2,0-6.4,0-8.8,0c3.1,13.3,6.1,26.3,9.2,39.8c5.9,2.3,7.1,5.5,4.2,13.7c-10,1.4-12.6-0.2-16-9.5"/>
	<path class="st0" d="M142.4,79.9c-11.2,0-22.3-0.1-33.5,0c-8.8,0.1-17.7,0.6-26.5,1"/>
	<path class="st0" d="M69.4,85.4c-3.9,6.1-4.3,12.2-0.5,18.5c1.5,2.6,3.4,5.1,6.5,4.3c2.2-0.6,5-2.4,5.8-4.4
		c1.7-4.1,2.3-8.7,3.4-13.1c-0.4-0.2-0.8-0.4-1.2-0.5c1,0,2,0,3.3,0c-0.8-2.6-1.6-4.9-2.3-7.3"/>
	<path class="st0" d="M154.4,84.4c4.4,7.8,4.1,14.9-1.1,19.9c-1.6,1.5-4,2.2-6.9,3.8c-1.6-4.4-2.9-7.8-4-11.2c-1.8-5.7-0.3-8.6,5-11
		c8.1-3.8,16.5-5.9,25.5-5"/>
	<path class="st0" d="M82.9,89.4c-7-2.8-13.9-6-21.1-8.3c-3-1-6.6-0.2-9.9-0.1c-1.2,0-2.3,0.3-3.5,0.5"/>
	<path class="st0" d="M169.4,64.9c-0.7,1.8-1.4,3.7-2.2,6c2.1,0,3.9,0,5.7,0"/>
	<path class="st0" d="M139.9,80.9c-1,2.5-2.1,5.1-3.4,8.2c3.2-0.8,5-1.3,6.9-1.7"/>
	<path class="st0" d="M152.4,138.9c-1.5-0.7-3-1.3-4.5-2"/>
	<path class="st0" d="M72.4,136.9c0.7,0.9,1.5,1.8,2.1,2.7c20.8-4.9,41.6-3.6,62.4-3.6c3.5,0,7,0.6,10.5,1"/>
	<path class="st0" d="M77.4,136.9c-0.3,0.5-0.7,1-1,1.5"/>
	<path class="st0" d="M151.4,133.9c-0.5,0.5-1,1-1.5,1.5"/>
</g>
<path class="st0" d="M74.4,100.7L74.4,100.7c-1.1,0-2-0.9-2-2v-4c0-1.1,0.9-2,2-2l0,0c1.1,0,2,0.9,2,2v4
	C76.4,99.8,75.5,100.7,74.4,100.7z"/>
<path class="st0" d="M149.4,98.7L149.4,98.7c-1.1,0-2-0.9-2-2v-2c0-1.1,0.9-2,2-2h0c1.1,0,2,0.9,2,2v2
	C151.4,97.8,150.5,98.7,149.4,98.7z"/>
</svg>
