<?xml version="1.0" encoding="utf-8"?>
<!-- Generator: Adobe Illustrator 19.0.0, SVG Export Plug-In . SVG Version: 6.00 Build 0)  -->
<svg version="1.1" id="Layer_2" xmlns="http://www.w3.org/2000/svg" xmlns:xlink="http://www.w3.org/1999/xlink" x="0px" y="0px"
	 viewBox="0 0 132 271.5" style="enable-background:new 0 0 132 271.5;" xml:space="preserve">
<style type="text/css">
	.st0{stroke:#1E1B1B;stroke-width:10;stroke-miterlimit:10;}
	.st1{fill:#FFFFFF;stroke:#1E1B1B;stroke-miterlimit:10;}
	.st2{stroke:#1E1B1B;stroke-miterlimit:10;}
</style>
<g>
	<path class="st0" d="M114.3,85.1c-3.7,7.2-6.3,15.2-11.3,21.3c-5.4,6.7-6.8,13.4-6.7,21.5c0.4,21.6,0.1,43.3,0.1,65
		c0,21.5,0,43,0,64.9c-9,0-17.7,0-27,0c0-43.6,0-87.3,0-130.9c-4.6-1.1-5.2,1-5.2,4.4c0.1,40.1,0.1,80.3,0.1,120.4c0,2,0,3.9,0,6.2
		c-10.4,0-20.5,0-31.2,0c0-2,0-4,0-5.9c0.1-42.5,0.1-84.9,0.2-127.4c0-5.6-1.6-10.1-5-14.7C20.4,99.2,14.1,88,14,73.9
		c-0.1-14,6.1-24.9,15.9-33.5c5.9-5.2,13.9-8.2,21-12c2-1.1,4.3-1.6,6.5-2.4c4.3,0,8.7,0,13,0c1.5,0.6,3,1.3,4.5,1.6
		C89.2,31,99.8,39.2,106.7,52c2.8,5.2,5.1,10.7,7.6,16C114.3,73.7,114.3,79.4,114.3,85.1z M17.3,67.9c-0.2,3.4-1,6.9-0.6,10.2
		c1.2,10.1,5.1,19.2,11.1,27.5C40.7,123.1,60.8,129,81,120.9c14.2-5.8,23.2-16.4,28.4-30.8c-7.9-5.3-15.1-10.4-22.5-15
		c-1.8-1.1-4.6-1.5-6.6-1c-9.1,2.3-16.8-2.7-18.1-12.1c-0.2-1.4-1.1-3.2-2.2-3.8c-9.2-4.6-18.5-9.1-27.9-13.4
		c-1-0.5-3.2-0.3-3.8,0.4c-5.8,6.6-10.6,13.7-11.1,22.8L17.3,67.9z M36.2,255.6c8.6,0,16.9,0,26,0c0-2,0-3.6,0-5.3
		c0-11.8,0-23.6,0-35.5c0-27.5,0-55-0.1-82.4c0-1.7-0.7-4.5-1.8-4.9c-7.8-3.1-15.8-5.6-24.1-8.5 M93.4,255.6c0-46,0-91.7,0-138.2
		c-6,2.6-11.5,5.4-17.2,7.4c-3.6,1.3-4.5,3.4-4.5,7.1c0.1,39.5,0.1,79,0.1,118.4c0,1.7,0.2,3.5,0.4,5.3
		C79.6,255.6,86.3,255.6,93.4,255.6z M109.7,87.8c5.9-18.6-4-41.5-22.3-52.8c-17.7-11-39.7-8.4-55.9,7c5.5,2.7,11.2,4.7,16.1,8
		c10.2,6.8,20.1,8,30.7,1.2c1.1-0.7,4.2,0,5.4,1.1c5.6,5.6,5.2,12.1,1.4,18.8C93.3,76.7,101.3,82.1,109.7,87.8z"/>
	<path class="st1" d="M17.2,68.1c0.4-9.2,5.3-16.3,11.1-22.8c0.6-0.7,2.8-0.9,3.8-0.4c9.4,4.3,18.7,8.8,27.9,13.4
		c1.1,0.6,2,2.4,2.2,3.8c1.3,9.3,9,14.4,18.1,12.1c2-0.5,4.9-0.1,6.6,1c7.5,4.7,14.7,9.7,22.5,15c-5.2,14.3-14.2,25-28.4,30.8
		c-20.1,8.2-40.3,2.2-53.2-15.3c-6-8.2-9.9-17.4-11.1-27.5c-0.4-3.3,0.4-6.8,0.6-10.2c1.6,1.4,3.1,2.8,5,4.6
		c-1.8,0.2-3.3,0.3-4.6,0.4c2,2.3,3.6,4.3,5.7,6.7c-1.2-5.4,3.6-1.1,5-3.4c-1.6-1-3-1.9-4.4-2.9c0.2-0.3,0.3-0.7,0.5-1
		c2,0.5,4.1,1,6.1,1.5c-5.2-5-5.2-5-4.3-7c1.4,0.8,2.9,1.5,4.3,2.3c0.2-0.3,0.4-0.6,0.6-0.9c-1.3-1.4-2.6-2.8-3.9-4.1
		c0.4-1.5,0.8-3,1.2-4.4c-0.4-0.3-0.9-0.7-1.3-1c-0.5,1.4-1,2.8-1.4,3.9c-2.4-1.7-3.8-2.6-6.2-4.2c4.1,7.5,4.1,7.5,2.8,10.4
		C20.7,68.5,18.9,68.3,17.2,68.1z M89.5,101.2c-19.6,2.6-37.3-0.2-54.6-7.5c0.8,12.4,7.9,19.7,19.3,20.8
		C67.7,115.8,79.3,112,89.5,101.2z M35.6,62.3c-1.9,6-0.5,13,3.9,16.3c3.8,2.9,7.9,2.3,11.7,0c4.6-2.8,6.3-8.2,5.1-12.8
		C49.3,64.6,42.7,63.5,35.6,62.3z"/>
	<path class="st1" d="M109.7,87.8c-8.4-5.7-16.4-11.1-24.6-16.7c3.9-6.7,4.3-13.2-1.4-18.8c-1.1-1.1-4.2-1.9-5.4-1.1
		c-10.6,6.9-20.6,5.7-30.7-1.2c-4.9-3.3-10.6-5.3-16.1-8c16.1-15.4,38.2-18,55.9-7C105.7,46.3,115.6,69.3,109.7,87.8z"/>
	<path class="st2" d="M89.5,101.2c-10.2,10.8-21.8,14.5-35.3,13.3c-11.4-1.1-18.5-8.4-19.3-20.8C52.2,101,70,103.8,89.5,101.2z
		 M55.9,106.7c-0.1,0.5-0.2,1-0.3,1.5c-4.1-0.2-8.3-0.4-12.4-0.6c8.8,8.1,30.2,6.4,39.3-3.6c-15.7,1.1-30.5-1.4-45.7-7.2
		C40.4,107,48.9,105.4,55.9,106.7z"/>
	<path class="st2" d="M35.6,62.3c7.1,1.2,13.7,2.3,20.7,3.5c1.3,4.6-0.5,10-5.1,12.8c-3.8,2.3-7.8,2.9-11.7,0
		C35.1,75.3,33.7,68.3,35.6,62.3z M37.1,65.2c-0.8,4.4-0.2,9,3.9,11.6c2.1,1.3,5.9,1.3,8.2,0.3c3.9-1.6,5.8-5.2,5.2-9.4
		C48.7,66.9,43,66.1,37.1,65.2z"/>
	<path class="st2" d="M17.2,68.1c1.8,0.2,3.5,0.5,5.3,0.7c1.3-2.9,1.3-2.9-2.8-10.4c2.4,1.6,3.8,2.6,6.2,4.2
		c0.4-1.1,0.9-2.5,1.4-3.9c0.4,0.3,0.9,0.7,1.3,1c-0.4,1.5-0.8,2.9-1.2,4.4c1.3,1.4,2.6,2.8,3.9,4.1c-0.2,0.3-0.4,0.6-0.6,0.9
		c-1.4-0.8-2.9-1.5-4.3-2.3c-0.8,2-0.8,2,4.3,7c-2-0.5-4.1-1-6.1-1.5c-0.2,0.3-0.3,0.7-0.5,1c1.4,0.9,2.8,1.8,4.4,2.9
		c-1.4,2.4-6.2-2-5,3.4c-2.1-2.5-3.7-4.4-5.7-6.7c1.3-0.1,2.8-0.2,4.6-0.4c-1.9-1.7-3.5-3.2-5-4.6C17.3,67.9,17.2,68.1,17.2,68.1z"
		/>
	<path class="st1" d="M55.9,106.7c-7-1.3-15.6,0.3-19.1-9.9c15.2,5.8,30,8.2,45.7,7.2c-9.1,10-30.4,11.8-39.3,3.6
		c4.2,0.2,8.3,0.4,12.4,0.6C55.8,107.7,55.9,107.2,55.9,106.7z"/>
	<path class="st1" d="M37.1,65.2c5.9,0.8,11.5,1.6,17.4,2.5c0.6,4.2-1.3,7.8-5.2,9.4c-2.4,1-6.2,1-8.2-0.3
		C36.9,74.2,36.3,69.7,37.1,65.2z M45,66.5c-2,1.8-3.5,3.1-5,4.5c1.6,1,3.3,2.9,4.9,2.8c1.8-0.1,3.5-2,5.3-3
		C48.7,69.6,47.3,68.4,45,66.5z"/>
	<path class="st2" d="M45,66.5c2.3,1.8,3.7,3,5.2,4.2c-1.8,1.1-3.5,2.9-5.3,3C43.3,73.9,41.7,72,40,71C41.5,69.7,43,68.4,45,66.5z"
		/>
</g>
</svg>
