<?xml version="1.0" encoding="UTF-8" standalone="no"?>
<svg width="718px" height="211px" viewBox="0 0 718 211" version="1.1" xmlns="http://www.w3.org/2000/svg" xmlns:xlink="http://www.w3.org/1999/xlink">
    <!-- Generator: Sketch 3.8.3 (29802) - http://www.bohemiancoding.com/sketch -->
    <title>body</title>
    <desc>Created with Sketch.</desc>
    <defs></defs>
    <g id="Page-1" stroke="none" stroke-width="1" fill="none" fill-rule="evenodd">
        <g id="body" transform="translate(1.000000, 0.000000)" fill="#FF0000">
            <g id="Page-1">
                <path d="M0.00078204,193.668653 L0.00078204,205.33183 C0.00078204,205.33183 -0.614922758,207.473824 32.70578,209.148276 C66.0264828,210.822729 126.426304,208.838998 126.426304,208.838998 L192.548591,206.999034 L309.662021,206.380477 C309.662021,206.380477 378.206896,207.240657 403.338279,206.286244 C428.469661,205.33183 400.440822,206.463837 438.638911,204.889658 C476.837001,203.31548 514.689002,208.838998 532.886611,205.33183 C551.08422,201.824662 545.313464,205.33183 573.543507,201.705058 C601.77355,198.078286 617.790025,204.756765 640.293575,201.705058 C662.797125,198.653351 658.909681,200.598421 680.926298,199.308151 C702.942915,198.01788 708.255988,201.301538 714.214838,201.705058 C718.769985,202.013522 714.214838,192.371134 714.214838,192.371134 L0.00078204,193.668653 L0.00078204,193.668653 Z" id="Path-2" stroke="#979797"></path>
                <rect id="Rectangle-1" x="0" y="0.0651424948" width="716" height="196.017332"></rect>
            </g>
        </g>
    </g>
</svg>